<svg width="24" height="24" viewBox="0 0 24 24" fill="none" xmlns="http://www.w3.org/2000/svg">
<path d="M24.0005 12.2505C24.0005 5.62313 18.6278 0.250488 12.0005 0.250488C5.37313 0.250488 0.000488281 5.62313 0.000488281 12.2505C0.000488281 17.878 3.87505 22.6003 9.10177 23.8972V15.9177H6.62737V12.2505H9.10177V10.6703C9.10177 6.58601 10.9502 4.69289 14.9602 4.69289C15.7205 4.69289 17.0323 4.84217 17.569 4.99097V8.31497C17.2858 8.28521 16.7938 8.27033 16.1827 8.27033C14.2152 8.27033 13.4549 9.01577 13.4549 10.9535V12.2505H17.3746L16.7011 15.9177H13.4549V24.1627C19.3958 23.4451 24.0005 18.3858 24.0005 12.2505Z" fill="#3366FF"/>
</svg>
