<svg width="24" height="24" viewBox="0 0 24 24" fill="none" xmlns="http://www.w3.org/2000/svg">
<path d="M12.0004 -0.00012207C8.74136 -0.00012207 8.33235 0.0141283 7.05234 0.0723789C5.77483 0.13088 4.90282 0.333132 4.13981 0.629885C3.35055 0.936388 2.68105 1.34639 2.01404 2.01365C1.34653 2.68066 0.936527 3.35016 0.629024 4.13917C0.331521 4.90243 0.129019 5.77469 0.0715182 7.0517C0.0142676 8.33172 -0.000732422 8.74097 -0.000732422 12C-0.000732422 15.259 0.013768 15.6668 0.0717686 16.9468C0.130519 18.2243 0.332771 19.0963 0.629274 19.8593C0.936027 20.6486 1.34603 21.3181 2.01329 21.9851C2.68005 22.6526 3.34955 23.0636 4.13831 23.3701C4.90182 23.6669 5.77408 23.8691 7.05134 23.9276C8.33135 23.9859 8.74011 24.0001 11.9989 24.0001C15.2582 24.0001 15.6659 23.9859 16.9459 23.9276C18.2235 23.8691 19.0965 23.6669 19.86 23.3701C20.649 23.0636 21.3175 22.6526 21.9842 21.9851C22.6518 21.3181 23.0618 20.6486 23.3693 19.8596C23.6643 19.0963 23.8668 18.2241 23.9268 16.9471C23.9843 15.667 23.9993 15.259 23.9993 12C23.9993 8.74097 23.9843 8.33197 23.9268 7.05195C23.8668 5.77444 23.6643 4.90243 23.3693 4.13942C23.0618 3.35016 22.6518 2.68066 21.9842 2.01365C21.3167 1.34614 20.6492 0.936138 19.8592 0.629885C19.0942 0.333132 18.2217 0.13088 16.9442 0.0723789C15.6642 0.0141283 15.2567 -0.00012207 11.9966 -0.00012207H12.0004ZM10.9239 2.1624C11.2434 2.1619 11.5999 2.1624 12.0004 2.1624C15.2044 2.1624 15.5842 2.1739 16.8494 2.2314C18.0195 2.2849 18.6545 2.4804 19.0775 2.64466C19.6375 2.86216 20.0367 3.12216 20.4565 3.54217C20.8765 3.96217 21.1365 4.36217 21.3545 4.92218C21.5187 5.34469 21.7145 5.97969 21.7677 7.14971C21.8252 8.41472 21.8377 8.79472 21.8377 11.9973C21.8377 15.1998 21.8252 15.5798 21.7677 16.8448C21.7142 18.0148 21.5187 18.6498 21.3545 19.0723C21.137 19.6323 20.8765 20.0311 20.4565 20.4508C20.0365 20.8709 19.6377 21.1309 19.0775 21.3484C18.655 21.5134 18.0195 21.7084 16.8494 21.7619C15.5844 21.8194 15.2044 21.8319 12.0004 21.8319C8.79611 21.8319 8.41636 21.8194 7.15134 21.7619C5.98133 21.7079 5.34632 21.5124 4.92307 21.3481C4.36306 21.1306 3.96306 20.8706 3.54305 20.4506C3.12305 20.0306 2.86305 19.6316 2.64505 19.0713C2.48079 18.6488 2.28504 18.0138 2.23179 16.8438C2.17429 15.5788 2.16279 15.1988 2.16279 11.9943C2.16279 8.78972 2.17429 8.41172 2.23179 7.14671C2.28529 5.97669 2.48079 5.34169 2.64505 4.91868C2.86255 4.35868 3.12305 3.95867 3.54305 3.53867C3.96306 3.11866 4.36306 2.85866 4.92307 2.64066C5.34607 2.47565 5.98133 2.28065 7.15134 2.2269C8.25835 2.1769 8.68736 2.1619 10.9239 2.1594V2.1624ZM18.406 4.15492C17.611 4.15492 16.9659 4.79918 16.9659 5.59444C16.9659 6.38945 17.611 7.03445 18.406 7.03445C19.201 7.03445 19.846 6.38945 19.846 5.59444C19.846 4.79943 19.201 4.15442 18.406 4.15442V4.15492ZM12.0004 5.83744C8.59711 5.83744 5.83783 8.59672 5.83783 12C5.83783 15.4033 8.59711 18.1613 12.0004 18.1613C15.4037 18.1613 18.162 15.4033 18.162 12C18.162 8.59672 15.4037 5.83744 12.0004 5.83744ZM12.0004 7.99996C14.2094 7.99996 16.0004 9.79073 16.0004 12C16.0004 14.209 14.2094 16.0001 12.0004 16.0001C9.79112 16.0001 8.00035 14.209 8.00035 12C8.00035 9.79073 9.79112 7.99996 12.0004 7.99996Z" fill="#3366FF"/>
</svg>
