<svg width="25" height="25" viewBox="0 0 25 25" fill="none" xmlns="http://www.w3.org/2000/svg">
<path d="M23.0572 0.250488C23.9679 0.250488 24.7715 1.05406 24.7715 2.01835V22.5362C24.7715 23.5005 23.9679 24.2505 23.0572 24.2505H2.4322C1.52148 24.2505 0.771484 23.5005 0.771484 22.5362V2.01835C0.771484 1.05406 1.52148 0.250488 2.4322 0.250488H23.0572ZM8.00363 20.8219V9.4112H4.46791V20.8219H8.00363ZM6.23577 7.80406C7.36077 7.80406 8.27148 6.89335 8.27148 5.76835C8.27148 4.64335 7.36077 3.67906 6.23577 3.67906C5.0572 3.67906 4.14648 4.64335 4.14648 5.76835C4.14648 6.89335 5.0572 7.80406 6.23577 7.80406ZM21.3429 20.8219V14.5541C21.3429 11.5005 20.6465 9.08977 17.0572 9.08977C15.3429 9.08977 14.1643 10.0541 13.6822 10.9648H13.6286V9.4112H10.2536V20.8219H13.7893V15.1969C13.7893 13.6969 14.0572 12.2505 15.9322 12.2505C17.7536 12.2505 17.7536 13.9648 17.7536 15.2505V20.8219H21.3429Z" fill="#3366FF"/>
</svg>
