<svg width="25" height="25" viewBox="0 0 25 25" fill="none" xmlns="http://www.w3.org/2000/svg">
<path d="M12.147 0.250488C18.7276 0.250488 24.147 5.66984 24.147 12.2505C24.147 18.8795 18.7276 24.2505 12.147 24.2505C5.51794 24.2505 0.146973 18.8795 0.146973 12.2505C0.146973 5.66984 5.51794 0.250488 12.147 0.250488ZM17.6631 8.42791C17.7115 8.28275 17.7115 8.13759 17.6631 7.94404C17.6631 7.84726 17.5663 7.7021 17.5179 7.65371C17.3728 7.50855 17.1308 7.50855 17.0341 7.50855C16.5986 7.50855 15.8728 7.75049 12.5341 9.15371C11.3728 9.63758 9.0502 10.6053 5.56633 12.1537C4.98568 12.3956 4.69536 12.5892 4.64697 12.8311C4.59859 13.2182 5.22762 13.3634 5.95342 13.6053C6.58246 13.7989 7.40504 14.0408 7.84052 14.0408C8.22762 14.0408 8.6631 13.8956 9.14697 13.5569C12.3889 11.3311 14.0825 10.2182 14.1792 10.2182C14.276 10.2182 14.3728 10.1698 14.4212 10.2182C14.5179 10.315 14.5179 10.4118 14.4696 10.4602C14.4212 10.7021 11.3728 13.5086 11.1792 13.7021C10.5018 14.3795 9.72762 14.815 10.9373 15.5892C11.9534 16.2666 12.5341 16.7021 13.5986 17.3795C14.276 17.815 14.8083 18.3473 15.4857 18.2989C15.8244 18.2505 16.1631 17.9602 16.3083 17.0408C16.7437 14.9602 17.5179 10.315 17.6631 8.42791Z" fill="#3366FF"/>
</svg>
